<svg width="16" height="16" viewBox="0 0 16 16" fill="none" xmlns="http://www.w3.org/2000/svg">
<path d="M4.70473 0C2.12218 0 0 2.11927 0 4.70473V11.2953C0 13.8778 2.11927 16 4.70473 16H11.2953C13.8778 16 16 13.8807 16 11.2953V4.70545C16 2.12218 13.8807 0 11.2953 0H4.70473ZM4.70473 1.45455H11.2953C11.7223 1.45397 12.1452 1.53765 12.5397 1.70078C12.9343 1.86391 13.2929 2.1033 13.5948 2.40522C13.8967 2.70714 14.1361 3.06567 14.2992 3.46026C14.4624 3.85485 14.546 4.27775 14.5455 4.70473V11.2953C14.546 11.7223 14.4624 12.1452 14.2992 12.5397C14.1361 12.9343 13.8967 13.2929 13.5948 13.5948C13.2929 13.8967 12.9343 14.1361 12.5397 14.2992C12.1452 14.4624 11.7223 14.546 11.2953 14.5455H4.70545C4.27841 14.5461 3.85543 14.4625 3.46076 14.2994C3.06609 14.1363 2.70748 13.897 2.40548 13.595C2.10348 13.2931 1.86403 12.9345 1.70085 12.5399C1.53767 12.1453 1.45397 11.7223 1.45455 11.2953V4.70545C1.45388 4.27841 1.53748 3.85543 1.70057 3.46076C1.86366 3.06609 2.10303 2.70748 2.40496 2.40548C2.70689 2.10348 3.06545 1.86403 3.46009 1.70085C3.85473 1.53767 4.27768 1.45397 4.70473 1.45455ZM12.2953 3.04582C12.2086 3.04543 12.1228 3.06221 12.0427 3.09519C11.9625 3.12817 11.8898 3.17669 11.8285 3.23795C11.7672 3.29921 11.7187 3.372 11.6857 3.45212C11.6528 3.53224 11.636 3.61809 11.6364 3.70473C11.6364 4.07127 11.9287 4.36364 12.2953 4.36364C12.382 4.36412 12.4679 4.34741 12.5481 4.31447C12.6283 4.28154 12.7012 4.23304 12.7625 4.17176C12.8239 4.11049 12.8724 4.03767 12.9055 3.9575C12.9385 3.87734 12.9553 3.79143 12.9549 3.70473C12.9553 3.61803 12.9385 3.53211 12.9055 3.45195C12.8724 3.37179 12.8239 3.29896 12.7625 3.23769C12.7012 3.17642 12.6283 3.12791 12.5481 3.09498C12.4679 3.06205 12.382 3.04534 12.2953 3.04582ZM8 3.63636C5.6 3.63636 3.63636 5.6 3.63636 8C3.63636 10.4 5.6 12.3636 8 12.3636C10.4 12.3636 12.3636 10.4 12.3636 8C12.3636 5.6 10.4 3.63636 8 3.63636ZM8 5.09091C9.61673 5.09091 10.9091 6.38327 10.9091 8C10.9091 9.61673 9.61673 10.9091 8 10.9091C6.38327 10.9091 5.09091 9.61673 5.09091 8C5.09091 6.38327 6.38327 5.09091 8 5.09091Z" fill="#A8A9A5"/>
</svg>
