<svg width="15" height="18" viewBox="0 0 15 18" fill="none" xmlns="http://www.w3.org/2000/svg">
<path d="M1.88786 0.500001C1.64007 0.499798 1.39467 0.552408 1.16568 0.654827C0.936688 0.757247 0.728593 0.907468 0.55328 1.09691C0.377967 1.28635 0.238871 1.5113 0.143937 1.75891C0.0490042 2.00652 9.37531e-05 2.27194 0 2.54C0 3.66818 0.845 4.60318 1.88571 4.60318C2.92786 4.60318 3.77357 3.66818 3.77357 2.54155C3.77376 2.27352 3.72512 2.00808 3.63044 1.7604C3.53576 1.51271 3.39689 1.28764 3.22176 1.09805C3.04664 0.908454 2.8387 0.75805 2.60982 0.655434C2.38094 0.552818 2.13561 0.500001 1.88786 0.500001ZM11.0964 5.90909C9.51143 5.90909 8.605 6.80546 8.16929 7.69718H8.12357V6.14941H5V17.5H8.255V11.8815C8.255 10.401 8.35786 8.96986 10.0514 8.96986C11.7207 8.96986 11.745 10.6583 11.745 11.975V17.5H15V11.2656C15 8.21491 14.3936 5.90909 11.0964 5.90909ZM0.259286 6.14864V17.5H3.51643V6.14864H0.259286Z" fill="#A8A9A5"/>
</svg>
