<svg width="14" height="17" viewBox="0 0 14 17" fill="none" xmlns="http://www.w3.org/2000/svg">
<path d="M7 0.9375C4.34969 0.9375 2.1875 3.09969 2.1875 5.75C2.1875 7.40688 3.03312 8.87812 4.31462 9.74644C1.86231 10.7983 0.125 13.2321 0.125 16.0625H1.5C1.5 13.0169 3.95438 10.5625 7 10.5625C10.0456 10.5625 12.5 13.0169 12.5 16.0625H13.875C13.875 13.2321 12.1377 10.799 9.68538 9.74575C10.3394 9.30422 10.8753 8.70913 11.2461 8.01256C11.617 7.31598 11.8114 6.53913 11.8125 5.75C11.8125 3.09969 9.65031 0.9375 7 0.9375ZM7 2.3125C8.90644 2.3125 10.4375 3.84356 10.4375 5.75C10.4375 7.65644 8.90644 9.1875 7 9.1875C5.09356 9.1875 3.5625 7.65644 3.5625 5.75C3.5625 3.84356 5.09356 2.3125 7 2.3125Z" fill="#111111"/>
</svg>
